<svg id="圖層_1" data-name="圖層 1" xmlns="http://www.w3.org/2000/svg" xmlns:xlink="http://www.w3.org/1999/xlink" viewBox="0 0 100 100"><defs><style>.cls-1,.cls-2{fill:#fff;}.cls-2{filter:url(#luminosity-invert-noclip);}.cls-3{fill:url(#未命名漸層_9);}.cls-4{mask:url(#mask);}.cls-5{fill:url(#未命名漸層_7);}.cls-6{mask:url(#mask-2);}.cls-7{fill:url(#未命名漸層_7-2);}.cls-8{fill:url(#未命名漸層_7-3);}</style><linearGradient id="未命名漸層_9" x1="28.04" y1="40.82" x2="72.61" y2="40.82" gradientUnits="userSpaceOnUse"><stop offset="0" stop-color="#1f00ff"/><stop offset="1" stop-color="#004eff"/></linearGradient><mask id="mask" x="-84.54" y="-18.69" width="137.22" height="126.45" maskUnits="userSpaceOnUse"><circle class="cls-1" cx="-21.32" cy="44.54" r="63.23"/></mask><linearGradient id="未命名漸層_7" x1="17.88" y1="44.92" x2="52.68" y2="44.92" gradientUnits="userSpaceOnUse"><stop offset="0" stop-color="#004eff"/><stop offset="1" stop-color="#004eff"/></linearGradient><filter id="luminosity-invert-noclip" x="-111.43" y="-13.84" width="205.94" height="187.32" filterUnits="userSpaceOnUse" color-interpolation-filters="sRGB"><feColorMatrix values="-1 0 0 0 1 0 -1 0 0 1 0 0 -1 0 1 0 0 0 1 0" result="invert"/><feFlood flood-color="#fff" result="bg"/><feBlend in="invert" in2="bg"/></filter><mask id="mask-2" x="-111.43" y="-13.84" width="205.94" height="187.32" maskUnits="userSpaceOnUse"><circle class="cls-2" cx="-17.76" cy="79.82" r="93.66"/></mask><linearGradient id="未命名漸層_7-2" x1="49.94" y1="40.82" x2="94.51" y2="40.82" xlink:href="#未命名漸層_7"/><linearGradient id="未命名漸層_7-3" x1="5.17" y1="90.02" x2="94.83" y2="90.02" xlink:href="#未命名漸層_7"/></defs><path class="cls-3" d="M28,0s47,29.86,44.47,81.64c0,0-11.81-11.61-33.64-7.22C38.87,74.42,57.9,32.72,28,0Z"/><polygon class="cls-1" points="54.45 54.14 44.19 54.14 44.34 52.81 57.17 52.81 54.45 54.14"/><polygon class="cls-1" points="67.7 49.84 44.62 49.84 44.71 48.52 67.21 48.52 67.7 49.84"/><g class="cls-4"><path class="cls-5" d="M17.88,13.05S54.59,36.37,52.6,76.8c0,0-10.17-12.9-28.77-6C23.83,70.84,41.19,38.6,17.88,13.05Z"/></g><polygon class="cls-1" points="41.19 54.14 29.21 54.14 29.42 52.81 41.36 52.81 41.19 54.14"/><polygon class="cls-1" points="41.68 49.84 29.79 49.84 29.9 48.52 41.77 48.52 41.68 49.84"/><g class="cls-6"><path class="cls-7" d="M49.94,0S97,29.86,94.41,81.64c0,0-13-16.52-36.85-7.63C57.56,74,79.8,32.72,49.94,0Z"/></g><polygon class="cls-1" points="83.94 49.84 71 49.84 70.54 48.52 77.35 48.52 83.94 49.84"/><path class="cls-8" d="M94.83,85.56S55.08,94.36,5.17,80c0,0,42.3,25.71,84.34,18.77Z"/></svg>