<svg id="圖層_1" data-name="圖層 1" xmlns="http://www.w3.org/2000/svg" xmlns:xlink="http://www.w3.org/1999/xlink" viewBox="0 0 480 100"><defs><style>.cls-1{fill:#004eff;}.cls-2{fill:url(#未命名漸層_9);}.cls-3{fill:url(#未命名漸層_9-2);}.cls-4{fill:url(#未命名漸層_9-3);}.cls-5{fill:url(#未命名漸層_7);}.cls-6{fill:url(#未命名漸層_9-4);}.cls-7{fill:url(#未命名漸層_9-5);}.cls-8{fill:url(#未命名漸層_9-6);}.cls-9{fill:none;}.cls-10{fill:url(#未命名漸層_7-2);}</style><linearGradient id="未命名漸層_9" x1="62.3537" y1="48.9951" x2="62.51" y2="48.9951" gradientUnits="userSpaceOnUse"><stop offset="0" stop-color="#1f00ff"/><stop offset="1" stop-color="#004eff"/></linearGradient><linearGradient id="未命名漸層_9-2" x1="33.9113" y1="65.6483" x2="67.6516" y2="65.6483" xlink:href="#未命名漸層_9"/><linearGradient id="未命名漸層_9-3" x1="23.0804" y1="24.512" x2="62.2501" y2="24.512" xlink:href="#未命名漸層_9"/><linearGradient id="未命名漸層_7" x1="44.9811" y1="40.8188" x2="89.5524" y2="40.8188" gradientUnits="userSpaceOnUse"><stop offset="0" stop-color="#004eff"/><stop offset="1" stop-color="#004eff"/></linearGradient><linearGradient id="未命名漸層_9-4" x1="12.9205" y1="51.3509" x2="47.7241" y2="51.3509" xlink:href="#未命名漸層_9"/><linearGradient id="未命名漸層_9-5" x1="12.9206" y1="30.9349" x2="47.7242" y2="30.9349" xlink:href="#未命名漸層_9"/><linearGradient id="未命名漸層_9-6" x1="12.9205" y1="62.3939" x2="47.7241" y2="62.3939" xlink:href="#未命名漸層_9"/><linearGradient id="未命名漸層_7-2" x1="0.2111" y1="90.0206" x2="89.8748" y2="90.0206" xlink:href="#未命名漸層_7"/></defs><path class="cls-1" d="M119.4633,42.0361H153.18V49.57H129.8787V60.404h21.0976v7.5338H129.8787v18.19H119.4633Z"/><path class="cls-1" d="M160.055,42.0361h9.7478V86.1277H160.055Z"/><path class="cls-1" d="M189.1643,86.6029a25.5276,25.5276,0,0,1-4.1393-.8148,10.0828,10.0828,0,0,1-3.8724-1.9342,9.6271,9.6271,0,0,1-2.47-3.5634,13.2529,13.2529,0,0,1-1.0015-5.43V65.1551a14.9624,14.9624,0,0,1,1.0015-5.7016,9.6782,9.6782,0,0,1,2.6036-3.8,11.7219,11.7219,0,0,1,3.7057-1.9347,19.7072,19.7072,0,0,1,4.5063-.9837q2.537-.1358,4.607-.1361,3.07,0,4.9071.17a20.2184,20.2184,0,0,1,4.0391.8485,10.888,10.888,0,0,1,3.9061,2.0362,10.3175,10.3175,0,0,1,2.57,3.6649,15.3634,15.3634,0,0,1,1.0015,5.8372v9.7056a13.79,13.79,0,0,1-.9682,5.362,9.2729,9.2729,0,0,1-2.5039,3.5975,10.0611,10.0611,0,0,1-3.6383,1.8664,22.12,22.12,0,0,1-4.5068.9163q-2.003.2036-4.807.2035A48.8937,48.8937,0,0,1,189.1643,86.6029Zm9.08-6.4139a3.3292,3.3292,0,0,0,1.97-1.3916,5.5105,5.5105,0,0,0,.5674-2.7827V63.5942q0-2.7138-1.4022-3.8011-1.4018-1.0853-5.2742-1.0861t-5.2746,1.0861q-1.4018,1.0866-1.4018,3.8011V76.0147a5.5009,5.5009,0,0,0,.5675,2.7827,3.3264,3.3264,0,0,0,1.97,1.3916,19.6418,19.6418,0,0,0,8.2785,0Z"/><path class="cls-1" d="M230.1577,86.6029a14.9351,14.9351,0,0,1-3.3382-.8148,8.0583,8.0583,0,0,1-3.0381-1.6966,7.8547,7.8547,0,0,1-1.9027-2.9862,11.99,11.99,0,0,1-.8011-4.5476V59.0552h-6.5429V52.9467h6.5429V42.0361h9.7478V52.9467h8.88v6.1085h-8.88V74.8607a11.8784,11.8784,0,0,0,.4,3.5634,2.7427,2.7427,0,0,0,1.5356,1.697,8.94,8.94,0,0,0,3.4717.509,31.5108,31.5108,0,0,0,3.4721-.34v6.1768a51.5168,51.5168,0,0,1-5.4081.3391A35.0845,35.0845,0,0,1,230.1577,86.6029Z"/><path class="cls-1" d="M245.58,42.0361h9.7478v8.0091H245.58Zm0,11.2411h9.7478V86.1277H245.58Z"/><path class="cls-1" d="M264.4073,42.0361h9.7477V86.1277h-9.7477Z"/><path class="cls-1" d="M283.2347,42.0361h9.7477V86.1277h-9.7477Z"/><path class="cls-1" d="M304.1652,85.9579a5.2684,5.2684,0,0,1-3.1379-3.054,18.4293,18.4293,0,0,1-.9017-6.6179,15.95,15.95,0,0,1,.9682-6.1764,6.042,6.042,0,0,1,3.1379-3.2238,14.7847,14.7847,0,0,1,5.9755-.9842h10.95v-2.24a6.6487,6.6487,0,0,0-.5674-3.1223,3.1667,3.1667,0,0,0-2.07-1.4253,18.5193,18.5193,0,0,0-4.5068-.4074,107.2848,107.2848,0,0,0-11.35.8148V53.2772a98.25,98.25,0,0,1,12.3513-.6787,37.231,37.231,0,0,1,9.581.95,8.0218,8.0218,0,0,1,4.84,3.2579,12.6041,12.6041,0,0,1,1.4687,6.7194V86.1277h-9.5469V83.1415a6.34,6.34,0,0,1-3.0713,2.7827q-1.9371.8811-7.344.8822A20.3008,20.3008,0,0,1,304.1652,85.9579Zm14.7882-5.5313a3.0452,3.0452,0,0,0,1.3021-.4074,2.1359,2.1359,0,0,0,.6339-.8822,2.9918,2.9918,0,0,0,.2673-1.4253v-6.38H314.48a11.5971,11.5971,0,0,0-3.2047.3055,1.9159,1.9159,0,0,0-1.2688,1.2218,10.6227,10.6227,0,0,0-.3338,3.2238,9.9486,9.9486,0,0,0,.3338,3.1223,1.83,1.83,0,0,0,1.302,1.1535,14.5908,14.5908,0,0,0,3.4384.2718A30.0726,30.0726,0,0,0,318.9534,80.4266Z"/><path class="cls-1" d="M338.515,76.7612H348.93v9.3665H338.515Z"/><path class="cls-1" d="M371.1491,42.0785h12.6856l15.6226,44.0492H388.9085l-3.8724-11.6061h-15.823l-3.8054,11.6061h-10.282Zm11.6172,25.3841-5.4746-16.5607h-.2673L371.55,67.4626Z"/><path class="cls-1" d="M404.2642,42.0785h17.3587a45.3084,45.3084,0,0,1,10.0483.8822,9.26,9.26,0,0,1,5.4076,3.0882,9.8394,9.8394,0,0,1,1.7028,6.1426V60.54a11.086,11.086,0,0,1-1.8362,6.7872,10.0923,10.0923,0,0,1-5.8084,3.4615,44.8921,44.8921,0,0,1-10.716,1.0183H414.68v14.321H404.2642Zm17.0249,22.4657q4.0716,0,5.7419-.9842a3.58,3.58,0,0,0,1.6691-3.36V53.1416a2.7661,2.7661,0,0,0-1.6022-2.8506q-1.5367-.6775-5.9423-.6787H414.68V64.5442Z"/><path class="cls-1" d="M445.2177,42.0785h17.3587a45.3084,45.3084,0,0,1,10.0483.8822,9.26,9.26,0,0,1,5.4076,3.0882,9.84,9.84,0,0,1,1.7028,6.1426V60.54a11.086,11.086,0,0,1-1.8362,6.7872,10.0923,10.0923,0,0,1-5.8084,3.4615,44.8921,44.8921,0,0,1-10.716,1.0183h-5.7414v14.321H445.2177Zm17.0249,22.4657q4.0716,0,5.7418-.9842a3.58,3.58,0,0,0,1.6691-3.36V53.1416a2.7662,2.7662,0,0,0-1.6021-2.8506q-1.5367-.6775-5.9423-.6787h-6.476V64.5442Z"/><path class="cls-2" d="M62.3537,48.7847l.1563.4207C62.4579,49.0651,62.4063,48.9245,62.3537,48.7847Z"/><path class="cls-3" d="M62.7389,49.84H39.6671l.012-.1808q-.13,1.78-.33,3.4721l.0383-.3172H52.21l-2.7151,1.3224H39.2279l.0391-.3231a77.7617,77.7617,0,0,1-5.3557,20.6095c21.8311-4.395,33.641,7.2147,33.641,7.2147A81.0264,81.0264,0,0,0,62.7389,49.84Z"/><path class="cls-4" d="M39.7214,49.0239l.0339-.5064H62.25C50.3837,17.3463,23.08,0,23.08,0,37.8552,16.189,40.6579,34.5756,39.7214,49.0239Z"/><path class="cls-5" d="M44.9811,0A57.9854,57.9854,0,0,1,60.4617,36.7361,93.059,93.059,0,0,1,70.5854,71.6782a30.6153,30.6153,0,0,1,18.8675,9.9593C91.9941,29.86,44.9811,0,44.9811,0ZM66.04,49.84l-.4544-1.3224h6.8042L78.9832,49.84Z"/><path class="cls-6" d="M24.8457,49.649c-.1091,1.1662-.252,2.302-.4208,3.4038l.0384-.2388H36.3957q.1931-1.477.3186-2.9741H24.83Z"/><path class="cls-7" d="M12.9206,13.051C23.6633,24.8223,25.768,38.0131,24.9164,48.8188l.0258-.3013H36.8147c.0818-1.3168.1376-2.64.1376-3.9778a63.8352,63.8352,0,0,0-.4259-7.247A88.0105,88.0105,0,0,0,12.9206,13.051Z"/><path class="cls-8" d="M24.282,53.943a60.2846,60.2846,0,0,1-5.4083,16.9019,29.12,29.12,0,0,1,13.1991-1.9214,62.7578,62.7578,0,0,0,4.1549-14.7871H24.251Z"/><polygon class="cls-9" points="24.425 53.053 24.282 53.943 24.251 54.136 36.228 54.136 36.229 54.136 36.402 52.814 36.396 52.814 24.463 52.814 24.425 53.053"/><polygon class="cls-9" points="24.916 48.819 24.846 49.649 24.829 49.84 36.714 49.84 36.726 49.84 36.817 48.517 36.815 48.517 24.942 48.517 24.916 48.819"/><path class="cls-10" d="M89.8748,85.5619S50.122,94.3629.2111,80.0411c0,0,42.3021,25.7119,84.3445,18.7693Z"/></svg>