<svg id="圖層_1" data-name="圖層 1" xmlns="http://www.w3.org/2000/svg" xmlns:xlink="http://www.w3.org/1999/xlink" viewBox="0 0 480 100"><defs><style>.cls-1,.cls-2{fill:#fff;}.cls-2{filter:url(#luminosity-invert-noclip);}.cls-3{fill:url(#未命名漸層_9);}.cls-4{mask:url(#mask);}.cls-5{fill:url(#未命名漸層_7);}.cls-6{mask:url(#mask-2);}.cls-7{fill:url(#未命名漸層_7-2);}.cls-8{fill:url(#未命名漸層_7-3);}.cls-9{fill:#004eff;}</style><linearGradient id="未命名漸層_9" x1="23.13" y1="40.82" x2="67.71" y2="40.82" gradientUnits="userSpaceOnUse"><stop offset="0" stop-color="#1f00ff"/><stop offset="1" stop-color="#004eff"/></linearGradient><mask id="mask" x="-89.44" y="-18.69" width="137.22" height="126.45" maskUnits="userSpaceOnUse"><circle class="cls-1" cx="-26.22" cy="44.54" r="63.23"/></mask><linearGradient id="未命名漸層_7" x1="12.97" y1="44.92" x2="47.78" y2="44.92" gradientUnits="userSpaceOnUse"><stop offset="0" stop-color="#004eff"/><stop offset="1" stop-color="#004eff"/></linearGradient><filter id="luminosity-invert-noclip" x="-116.33" y="-13.84" width="205.94" height="187.32" filterUnits="userSpaceOnUse" color-interpolation-filters="sRGB"><feColorMatrix values="-1 0 0 0 1 0 -1 0 0 1 0 0 -1 0 1 0 0 0 1 0" result="invert"/><feFlood flood-color="#fff" result="bg"/><feBlend in="invert" in2="bg"/></filter><mask id="mask-2" x="-116.33" y="-13.84" width="205.94" height="187.32" maskUnits="userSpaceOnUse"><circle class="cls-2" cx="-22.67" cy="79.82" r="93.66"/></mask><linearGradient id="未命名漸層_7-2" x1="45.03" y1="40.82" x2="89.61" y2="40.82" xlink:href="#未命名漸層_7"/><linearGradient id="未命名漸層_7-3" x1="0.26" y1="90.02" x2="89.93" y2="90.02" xlink:href="#未命名漸層_7"/></defs><path class="cls-3" d="M23.13,0s47,29.86,44.48,81.64c0,0-11.81-11.61-33.64-7.22C34,74.42,53,32.72,23.13,0Z"/><polygon class="cls-1" points="49.55 54.14 39.28 54.14 39.44 52.81 52.26 52.81 49.55 54.14"/><polygon class="cls-1" points="62.8 49.84 39.72 49.84 39.81 48.52 62.31 48.52 62.8 49.84"/><g class="cls-4"><path class="cls-5" d="M13,13.05S49.68,36.37,47.7,76.8c0,0-10.17-12.9-28.77-6C18.93,70.84,36.29,38.6,13,13.05Z"/></g><polygon class="cls-1" points="36.28 54.14 24.3 54.14 24.52 52.81 36.46 52.81 36.28 54.14"/><polygon class="cls-1" points="36.78 49.84 24.88 49.84 25 48.52 36.87 48.52 36.78 49.84"/><g class="cls-6"><path class="cls-7" d="M45,0s47,29.86,44.48,81.64c0,0-13-16.52-36.85-7.63C52.66,74,74.89,32.72,45,0Z"/></g><polygon class="cls-1" points="79.04 49.84 66.09 49.84 65.64 48.52 72.44 48.52 79.04 49.84"/><path class="cls-8" d="M89.93,85.56S50.18,94.36.26,80c0,0,42.31,25.71,84.35,18.77Z"/><path class="cls-9" d="M119.46,42h33.72v7.53h-23.3V60.4H151v7.54h-21.1V86.13H119.46Z"/><path class="cls-9" d="M160.06,42h9.74V86.13h-9.74Z"/><path class="cls-9" d="M189.16,86.6a24.4,24.4,0,0,1-4.13-.81,10,10,0,0,1-3.88-1.94,9.57,9.57,0,0,1-2.47-3.56,13.2,13.2,0,0,1-1-5.43v-9.7a14.94,14.94,0,0,1,1-5.71,9.71,9.71,0,0,1,2.61-3.8,11.66,11.66,0,0,1,3.7-1.93,20,20,0,0,1,4.51-1c1.69-.09,3.23-.13,4.61-.13,2,0,3.68.06,4.9.17a20,20,0,0,1,4,.85,10.93,10.93,0,0,1,3.91,2,10.27,10.27,0,0,1,2.57,3.67,15.31,15.31,0,0,1,1,5.84v9.7a13.64,13.64,0,0,1-1,5.36,9.25,9.25,0,0,1-2.5,3.6,10.18,10.18,0,0,1-3.64,1.87,22.14,22.14,0,0,1-4.51.91,46.91,46.91,0,0,1-4.8.21A47.49,47.49,0,0,1,189.16,86.6Zm9.08-6.41a3.29,3.29,0,0,0,2-1.39,5.51,5.51,0,0,0,.57-2.79V63.59c0-1.81-.47-3.07-1.4-3.8s-2.69-1.08-5.27-1.08-4.34.36-5.28,1.08-1.4,2-1.4,3.8V76A5.51,5.51,0,0,0,188,78.8a3.29,3.29,0,0,0,2,1.39,19.65,19.65,0,0,0,8.27,0Z"/><path class="cls-9" d="M230.16,86.6a14.39,14.39,0,0,1-3.34-.81,8,8,0,0,1-3-1.7,7.85,7.85,0,0,1-1.9-3,11.92,11.92,0,0,1-.8-4.55V59.06h-6.55V53h6.55V42h9.75V53h8.88v6.11h-8.88v15.8a11.73,11.73,0,0,0,.4,3.56,2.69,2.69,0,0,0,1.53,1.7,8.92,8.92,0,0,0,3.47.51,30.89,30.89,0,0,0,3.48-.34v6.18a53.31,53.31,0,0,1-5.41.34A34,34,0,0,1,230.16,86.6Z"/><path class="cls-9" d="M245.58,42h9.75v8h-9.75Zm0,11.24h9.75V86.13h-9.75Z"/><path class="cls-9" d="M264.41,42h9.75V86.13h-9.75Z"/><path class="cls-9" d="M283.23,42H293V86.13h-9.75Z"/><path class="cls-9" d="M304.17,86A5.27,5.27,0,0,1,301,82.9a18.42,18.42,0,0,1-.9-6.61,16.06,16.06,0,0,1,1-6.18,6.07,6.07,0,0,1,3.14-3.22,14.72,14.72,0,0,1,6-1h11V63.66a6.61,6.61,0,0,0-.57-3.12,3.2,3.2,0,0,0-2.07-1.43,18.64,18.64,0,0,0-4.51-.4,107.91,107.91,0,0,0-11.35.81V53.28A98.67,98.67,0,0,1,315,52.6a37.46,37.46,0,0,1,9.59.95,8,8,0,0,1,4.84,3.26,12.7,12.7,0,0,1,1.46,6.72v22.6h-9.54v-3a6.34,6.34,0,0,1-3.07,2.78c-1.3.59-3.74.89-7.35.89A20.38,20.38,0,0,1,304.17,86ZM319,80.43a3.08,3.08,0,0,0,1.31-.41,2.22,2.22,0,0,0,.63-.88,3,3,0,0,0,.27-1.43V71.33h-6.68a11.27,11.27,0,0,0-3.2.31A1.89,1.89,0,0,0,310,72.86a10.31,10.31,0,0,0-.34,3.22A9.62,9.62,0,0,0,310,79.2a1.82,1.82,0,0,0,1.3,1.16,14.69,14.69,0,0,0,3.44.27A31,31,0,0,0,319,80.43Z"/><path class="cls-9" d="M338.51,76.76h10.42v9.37H338.51Z"/><path class="cls-9" d="M371.15,42.08h12.68l15.63,44.05H388.91L385,74.52H369.21l-3.8,11.61H355.13Zm11.62,25.38L377.29,50.9H377l-5.47,16.56Z"/><path class="cls-9" d="M404.26,42.08h17.36a45.18,45.18,0,0,1,10.05.88,9.29,9.29,0,0,1,5.41,3.09,9.87,9.87,0,0,1,1.7,6.14v8.35A11.11,11.11,0,0,1,437,67.33a10.14,10.14,0,0,1-5.81,3.46,44.83,44.83,0,0,1-10.72,1h-5.74V86.13H404.26Zm17,22.46c2.71,0,4.63-.32,5.74-1a3.59,3.59,0,0,0,1.67-3.36V53.14a2.76,2.76,0,0,0-1.6-2.85,17.15,17.15,0,0,0-5.94-.68h-6.48V64.54Z"/><path class="cls-9" d="M445.22,42.08h17.36a45.14,45.14,0,0,1,10,.88A9.26,9.26,0,0,1,478,46.05a9.81,9.81,0,0,1,1.71,6.14v8.35a11.11,11.11,0,0,1-1.84,6.79,10.11,10.11,0,0,1-5.81,3.46,44.83,44.83,0,0,1-10.72,1h-5.74V86.13H445.22Zm17,22.46c2.72,0,4.63-.32,5.74-1a3.58,3.58,0,0,0,1.67-3.36V53.14a2.76,2.76,0,0,0-1.6-2.85q-1.53-.67-5.94-.68h-6.48V64.54Z"/></svg>