<svg id="圖層_1" data-name="圖層 1" xmlns="http://www.w3.org/2000/svg" viewBox="0 0 100 100"><defs><style>.cls-1{fill:#fff;}.cls-2{fill:none;}</style></defs><path class="cls-1" d="M67.3108,48.7847l.1562.4207C67.415,49.0651,67.3634,48.9245,67.3108,48.7847Z"/><path class="cls-1" d="M67.696,49.84H44.6242l.012-.1808q-.13,1.78-.33,3.4721l.0383-.3172H57.1675l-2.7151,1.3224H44.185l.0391-.3231a77.7592,77.7592,0,0,1-5.3558,20.6095c21.8312-4.395,33.6411,7.2147,33.6411,7.2147A81.0264,81.0264,0,0,0,67.696,49.84Z"/><path class="cls-1" d="M44.6785,49.0239l.0339-.5064H67.2072C55.3408,17.3463,28.0375,0,28.0375,0,42.8123,16.189,45.615,34.5756,44.6785,49.0239Z"/><path class="cls-1" d="M49.9382,0A57.9859,57.9859,0,0,1,65.4188,36.7361,93.0608,93.0608,0,0,1,75.5425,71.6782,30.6153,30.6153,0,0,1,94.41,81.6375C96.9512,29.86,49.9382,0,49.9382,0ZM70.9966,49.84l-.4544-1.3224h6.8042L83.94,49.84Z"/><path class="cls-1" d="M29.8028,49.649c-.1091,1.1662-.252,2.302-.4208,3.4038l.0383-.2388H41.3528q.193-1.477.3186-2.9741H29.7866Z"/><path class="cls-1" d="M17.8777,13.051C28.62,24.8223,30.7251,38.0131,29.8735,48.8188l.0258-.3013H41.7718c.0818-1.3168.1376-2.64.1376-3.9778a63.8352,63.8352,0,0,0-.4259-7.247A88.0105,88.0105,0,0,0,17.8777,13.051Z"/><path class="cls-1" d="M29.2391,53.943a60.2846,60.2846,0,0,1-5.4083,16.9019A29.12,29.12,0,0,1,37.03,68.9235a62.7578,62.7578,0,0,0,4.1549-14.7871H29.2081Z"/><polygon class="cls-2" points="29.382 53.053 29.239 53.943 29.208 54.136 41.185 54.136 41.186 54.136 41.359 52.814 41.353 52.814 29.42 52.814 29.382 53.053"/><polygon class="cls-2" points="29.874 48.819 29.803 49.649 29.787 49.84 41.671 49.84 41.683 49.84 41.775 48.517 41.772 48.517 29.899 48.517 29.874 48.819"/><path class="cls-1" d="M94.8319,85.5619s-39.7528,8.801-89.6638-5.5208c0,0,42.3022,25.7119,84.3446,18.7693Z"/></svg>