<svg id="圖層_1" data-name="圖層 1" xmlns="http://www.w3.org/2000/svg" viewBox="0 0 480 100"><defs><style>.cls-1{fill:#fff;}</style></defs><path class="cls-1" d="M119.46,42h33.72v7.53h-23.3V60.4H151v7.54h-21.1V86.13H119.46Z"/><path class="cls-1" d="M160.06,42h9.74V86.13h-9.74Z"/><path class="cls-1" d="M189.16,86.6a24.4,24.4,0,0,1-4.13-.81,10,10,0,0,1-3.88-1.94,9.57,9.57,0,0,1-2.47-3.56,13.2,13.2,0,0,1-1-5.43v-9.7a14.94,14.94,0,0,1,1-5.71,9.71,9.71,0,0,1,2.61-3.8,11.66,11.66,0,0,1,3.7-1.93,20,20,0,0,1,4.51-1c1.69-.09,3.23-.13,4.61-.13,2,0,3.68.06,4.9.17a20,20,0,0,1,4,.85,10.93,10.93,0,0,1,3.91,2,10.27,10.27,0,0,1,2.57,3.67,15.31,15.31,0,0,1,1,5.84v9.7a13.64,13.64,0,0,1-1,5.36,9.25,9.25,0,0,1-2.5,3.6,10.18,10.18,0,0,1-3.64,1.87,22.14,22.14,0,0,1-4.51.91,46.91,46.91,0,0,1-4.8.21A47.49,47.49,0,0,1,189.16,86.6Zm9.08-6.41a3.29,3.29,0,0,0,2-1.39,5.51,5.51,0,0,0,.57-2.79V63.59c0-1.81-.47-3.07-1.4-3.8s-2.69-1.08-5.27-1.08-4.34.36-5.28,1.08-1.4,2-1.4,3.8V76A5.51,5.51,0,0,0,188,78.8a3.29,3.29,0,0,0,2,1.39,19.65,19.65,0,0,0,8.27,0Z"/><path class="cls-1" d="M230.16,86.6a14.39,14.39,0,0,1-3.34-.81,8,8,0,0,1-3-1.7,7.85,7.85,0,0,1-1.9-3,11.92,11.92,0,0,1-.8-4.55V59.06h-6.55V53h6.55V42h9.75V53h8.88v6.11h-8.88v15.8a11.73,11.73,0,0,0,.4,3.56,2.69,2.69,0,0,0,1.53,1.7,8.92,8.92,0,0,0,3.47.51,30.89,30.89,0,0,0,3.48-.34v6.18a53.31,53.31,0,0,1-5.41.34A34,34,0,0,1,230.16,86.6Z"/><path class="cls-1" d="M245.58,42h9.75v8h-9.75Zm0,11.24h9.75V86.13h-9.75Z"/><path class="cls-1" d="M264.41,42h9.75V86.13h-9.75Z"/><path class="cls-1" d="M283.23,42H293V86.13h-9.75Z"/><path class="cls-1" d="M304.17,86A5.27,5.27,0,0,1,301,82.9a18.42,18.42,0,0,1-.9-6.61,16.06,16.06,0,0,1,1-6.18,6.07,6.07,0,0,1,3.14-3.22,14.72,14.72,0,0,1,6-1h11V63.66a6.61,6.61,0,0,0-.57-3.12,3.2,3.2,0,0,0-2.07-1.43,18.64,18.64,0,0,0-4.51-.4,107.91,107.91,0,0,0-11.35.81V53.28A98.67,98.67,0,0,1,315,52.6a37.46,37.46,0,0,1,9.59.95,8,8,0,0,1,4.84,3.26,12.7,12.7,0,0,1,1.46,6.72v22.6h-9.54v-3a6.34,6.34,0,0,1-3.07,2.78c-1.3.59-3.74.89-7.35.89A20.38,20.38,0,0,1,304.17,86ZM319,80.43a3.08,3.08,0,0,0,1.31-.41,2.22,2.22,0,0,0,.63-.88,3,3,0,0,0,.27-1.43V71.33h-6.68a11.27,11.27,0,0,0-3.2.31A1.89,1.89,0,0,0,310,72.86a10.31,10.31,0,0,0-.34,3.22A9.62,9.62,0,0,0,310,79.2a1.82,1.82,0,0,0,1.3,1.16,14.69,14.69,0,0,0,3.44.27A31,31,0,0,0,319,80.43Z"/><path class="cls-1" d="M338.51,76.76h10.42v9.37H338.51Z"/><path class="cls-1" d="M371.15,42.08h12.68l15.63,44.05H388.91L385,74.52H369.21l-3.8,11.61H355.13Zm11.62,25.38L377.29,50.9H377l-5.47,16.56Z"/><path class="cls-1" d="M404.26,42.08h17.36a45.18,45.18,0,0,1,10.05.88,9.29,9.29,0,0,1,5.41,3.09,9.87,9.87,0,0,1,1.7,6.14v8.35A11.11,11.11,0,0,1,437,67.33a10.14,10.14,0,0,1-5.81,3.46,44.83,44.83,0,0,1-10.72,1h-5.74V86.13H404.26Zm17,22.46c2.71,0,4.63-.32,5.74-1a3.59,3.59,0,0,0,1.67-3.36V53.14a2.76,2.76,0,0,0-1.6-2.85,17.15,17.15,0,0,0-5.94-.68h-6.48V64.54Z"/><path class="cls-1" d="M445.22,42.08h17.36a45.14,45.14,0,0,1,10,.88A9.26,9.26,0,0,1,478,46.05a9.81,9.81,0,0,1,1.71,6.14v8.35a11.11,11.11,0,0,1-1.84,6.79,10.11,10.11,0,0,1-5.81,3.46,44.83,44.83,0,0,1-10.72,1h-5.74V86.13H445.22Zm17,22.46c2.72,0,4.63-.32,5.74-1a3.58,3.58,0,0,0,1.67-3.36V53.14a2.76,2.76,0,0,0-1.6-2.85q-1.53-.67-5.94-.68h-6.48V64.54Z"/><path class="cls-1" d="M62.35,48.78l.16.43C62.46,49.07,62.41,48.92,62.35,48.78Z"/><path class="cls-1" d="M62.74,49.84H39.67v-.18c-.09,1.19-.2,2.34-.33,3.47l0-.32H52.21L49.5,54.14H39.23l0-.33a77.68,77.68,0,0,1-5.36,20.61C55.74,70,67.55,81.64,67.55,81.64A81.08,81.08,0,0,0,62.74,49.84Z"/><path class="cls-1" d="M39.72,49l0-.5H62.25C50.38,17.35,23.08,0,23.08,0,37.86,16.19,40.66,34.58,39.72,49Z"/><path class="cls-1" d="M45,0A58,58,0,0,1,60.46,36.74,93.15,93.15,0,0,1,70.59,71.68a30.62,30.62,0,0,1,18.86,10C92,29.86,45,0,45,0ZM66,49.84l-.45-1.32h6.8L79,49.84Z"/><path class="cls-1" d="M24.85,49.65c-.11,1.17-.26,2.3-.43,3.4l0-.24H36.4c.12-1,.23-2,.31-3H24.83Z"/><path class="cls-1" d="M12.92,13.05c10.74,11.77,12.85,25,12,35.77l0-.3H36.81c.09-1.32.14-2.64.14-4a64.3,64.3,0,0,0-.42-7.25A88.12,88.12,0,0,0,12.92,13.05Z"/><path class="cls-1" d="M24.28,53.94a60.1,60.1,0,0,1-5.41,16.9,29.32,29.32,0,0,1,13.2-1.92,62.65,62.65,0,0,0,4.16-14.78h-12Z"/><polygon class="cls-1" points="24.43 53.05 24.28 53.94 24.25 54.14 36.23 54.14 36.23 54.14 36.4 52.81 36.4 52.81 24.46 52.81 24.43 53.05"/><polygon class="cls-1" points="24.92 48.82 24.85 49.65 24.83 49.84 36.71 49.84 36.73 49.84 36.82 48.52 36.81 48.52 24.94 48.52 24.92 48.82"/><path class="cls-1" d="M89.87,85.56S50.12,94.36.21,80c0,0,42.3,25.71,84.35,18.77Z"/></svg>